<svg width="954" height="893" viewBox="0 0 954 893" fill="none" xmlns="http://www.w3.org/2000/svg">
<g clip-path="url(#clip0_8_1695)">
<mask id="mask0_8_1695" style="mask-type:luminance" maskUnits="userSpaceOnUse" x="42" y="104" width="852" height="697">
<path d="M874.5 528C841.5 618 775.667 656.333 677 643C578.333 629.667 491.667 661.333 417 738C342.333 814.667 268.667 820.833 196 756.5C123.333 692.167 75.1666 615.5 51.5 526.5C27.8333 437.5 49.1666 364 115.5 306C181.833 248 237.5 194.833 282.5 146.5C327.5 98.1667 379 91.1667 437 125.5C495 159.833 564.5 175 645.5 171C726.5 167 793.167 203 845.5 279C897.833 355 907.5 438 874.5 528Z" fill="white"/>
</mask>
<g mask="url(#mask0_8_1695)">
<path d="M874.5 528C841.5 618 775.667 656.333 677 643C578.333 629.667 491.667 661.333 417 738C342.333 814.667 268.667 820.833 196 756.5C123.333 692.167 75.1666 615.5 51.5 526.5C27.8333 437.5 49.1666 364 115.5 306C181.833 248 237.5 194.833 282.5 146.5C327.5 98.1667 379 91.1667 437 125.5C495 159.833 564.5 175 645.5 171C726.5 167 793.167 203 845.5 279C897.833 355 907.5 438 874.5 528Z" fill="url(#paint0_linear_8_1695)"/>
</g>
<path d="M83.67 516V389.3H141.59C153.174 389.3 163.129 391.17 171.455 394.911C179.902 398.652 186.418 404.082 191.003 411.201C195.588 418.2 197.881 426.526 197.881 436.179C197.881 445.712 195.588 453.977 191.003 460.976C186.418 467.854 179.902 473.163 171.455 476.904C163.129 480.524 153.174 482.334 141.59 482.334H103.58L119.508 467.311V516H83.67ZM162.043 516L130.549 469.845H168.74L200.415 516H162.043ZM119.508 471.112L103.58 454.641H139.418C146.899 454.641 152.45 453.012 156.07 449.754C159.811 446.496 161.681 441.971 161.681 436.179C161.681 430.266 159.811 425.681 156.07 422.423C152.45 419.165 146.899 417.536 139.418 417.536H103.58L119.508 401.065V471.112ZM281.545 518.534C271.409 518.534 262.058 516.905 253.49 513.647C244.923 510.389 237.442 505.804 231.046 499.891C224.772 493.858 219.885 486.859 216.385 478.895C212.886 470.931 211.136 462.183 211.136 452.65C211.136 443.117 212.886 434.369 216.385 426.405C219.885 418.441 224.772 411.503 231.046 405.59C237.442 399.557 244.923 394.911 253.49 391.653C262.058 388.395 271.409 386.766 281.545 386.766C291.802 386.766 301.154 388.395 309.6 391.653C318.168 394.911 325.589 399.557 331.863 405.59C338.138 411.503 343.025 418.441 346.524 426.405C350.144 434.369 351.954 443.117 351.954 452.65C351.954 462.183 350.144 470.991 346.524 479.076C343.025 487.04 338.138 493.978 331.863 499.891C325.589 505.804 318.168 510.389 309.6 513.647C301.154 516.905 291.802 518.534 281.545 518.534ZM281.545 488.85C286.372 488.85 290.837 488.005 294.939 486.316C299.163 484.627 302.783 482.213 305.799 479.076C308.937 475.818 311.35 471.957 313.039 467.492C314.849 463.027 315.754 458.08 315.754 452.65C315.754 447.099 314.849 442.152 313.039 437.808C311.35 433.343 308.937 429.542 305.799 426.405C302.783 423.147 299.163 420.673 294.939 418.984C290.837 417.295 286.372 416.45 281.545 416.45C276.719 416.45 272.194 417.295 267.97 418.984C263.868 420.673 260.248 423.147 257.11 426.405C254.094 429.542 251.68 433.343 249.87 437.808C248.181 442.152 247.336 447.099 247.336 452.65C247.336 458.08 248.181 463.027 249.87 467.492C251.68 471.957 254.094 475.818 257.11 479.076C260.248 482.213 263.868 484.627 267.97 486.316C272.194 488.005 276.719 488.85 281.545 488.85ZM433.894 518.534C423.878 518.534 414.587 516.965 406.02 513.828C397.573 510.57 390.212 505.985 383.938 500.072C377.784 494.159 372.957 487.221 369.458 479.257C365.958 471.172 364.209 462.303 364.209 452.65C364.209 442.997 365.958 434.188 369.458 426.224C372.957 418.139 377.784 411.141 383.938 405.228C390.212 399.315 397.573 394.79 406.02 391.653C414.587 388.395 423.878 386.766 433.894 386.766C445.598 386.766 456.036 388.817 465.207 392.92C474.498 397.023 482.221 402.935 488.375 410.658L465.569 431.292C461.466 426.465 456.941 422.785 451.994 420.251C447.167 417.717 441.737 416.45 435.704 416.45C430.515 416.45 425.749 417.295 421.405 418.984C417.061 420.673 413.32 423.147 410.183 426.405C407.166 429.542 404.753 433.343 402.943 437.808C401.253 442.273 400.409 447.22 400.409 452.65C400.409 458.08 401.253 463.027 402.943 467.492C404.753 471.957 407.166 475.818 410.183 479.076C413.32 482.213 417.061 484.627 421.405 486.316C425.749 488.005 430.515 488.85 435.704 488.85C441.737 488.85 447.167 487.583 451.994 485.049C456.941 482.515 461.466 478.835 465.569 474.008L488.375 494.642C482.221 502.244 474.498 508.157 465.207 512.38C456.036 516.483 445.598 518.534 433.894 518.534ZM536.391 487.945L534.4 447.763L588.881 389.3H628.339L574.039 448.125L554.129 468.94L536.391 487.945ZM504.354 516V389.3H539.83V516H504.354ZM589.424 516L548.156 463.691L571.505 438.713L631.054 516H589.424ZM673.399 438.351H732.224V465.139H673.399V438.351ZM675.933 488.307H742.179V516H640.457V389.3H739.826V416.993H675.933V488.307ZM789.035 516V417.717H750.12V389.3H863.607V417.717H824.873V516H789.035Z" fill="white"/>
<ellipse cx="841.5" cy="744.493" rx="78.6803" ry="98.7961" transform="rotate(24.4339 841.5 744.493)" fill="#2A3C64"/>
<circle cx="790" cy="710" r="46" fill="url(#paint1_diamond_8_1695)"/>
</g>
<defs>
<linearGradient id="paint0_linear_8_1695" x1="-15.3324" y1="119.624" x2="807.132" y2="340.003" gradientUnits="userSpaceOnUse">
<stop stop-color="#21D4FD"/>
<stop offset="1" stop-color="#B721FF"/>
</linearGradient>
<radialGradient id="paint1_diamond_8_1695" cx="0" cy="0" r="1" gradientUnits="userSpaceOnUse" gradientTransform="translate(806 664) rotate(101.07) scale(93.7443)">
<stop stop-color="#2DB5E7"/>
<stop offset="1" stop-color="#34E5D3"/>
</radialGradient>
<clipPath id="clip0_8_1695">
<rect width="954" height="893" fill="white"/>
</clipPath>
</defs>
</svg>
