<svg width="963" height="404" viewBox="0 0 963 404" fill="none" xmlns="http://www.w3.org/2000/svg">
<path d="M308.458 72.9927C311.823 75.6595 316.602 76.3107 320.707 77.4598C317.342 74.793 312.563 74.1418 308.458 72.9927Z" fill="#C7C7C7"/>
<path d="M299.111 71.7611C298.563 72.0693 299.594 72.3002 299.662 72.2617C300.211 71.9538 299.179 71.7224 299.111 71.7611Z" fill="#B1B1B1"/>
<path d="M301.037 72.3002C300.488 72.6084 301.52 72.8393 301.588 72.8007C302.137 72.4928 301.105 72.2614 301.037 72.3002Z" fill="#787878"/>
<path d="M302.963 72.8395C302.414 73.1477 303.446 73.3786 303.514 73.34C304.063 73.0321 303.031 72.8008 302.963 72.8395Z" fill="#484848"/>
<path d="M304.889 73.3785C304.34 73.6867 305.372 73.9176 305.44 73.8791C305.988 73.5712 304.957 73.3398 304.889 73.3785Z" fill="#202020"/>
<path d="M306.148 73.8255C280.682 70.1753 255.993 70.1889 231.665 80.23C215.882 86.7443 201.468 96.0779 189.421 108.211C143.021 154.943 138.023 232.019 181.2 282.786C189.452 292.491 198.728 301.052 209.455 307.98C225.292 318.207 243.536 324.818 262.105 327.638C280.429 330.419 299.52 328.9 317.238 323.581C331.972 319.158 345.8 312.129 358.094 302.881C415.773 259.492 424.747 175.169 380.715 119.059C371.427 107.223 359.433 96.9994 346.423 89.4654C334.198 82.3858 320.264 75.8489 306.148 73.8255Z" fill="black"/>
<path d="M323.596 78.2686C324.613 79.2644 324.885 79.4069 326.215 80.0402C325.198 79.0443 324.927 78.9018 323.596 78.2686Z" fill="#363636"/>
<path d="M326.485 79.0771C327.502 80.073 327.774 80.2155 329.104 80.8488C328.087 79.8529 327.816 79.7104 326.485 79.0771Z" fill="#7C7C7C"/>
<path d="M329.926 80.3866C329.378 80.6948 330.41 80.9257 330.478 80.8872C331.026 80.5793 329.994 80.3479 329.926 80.3866Z" fill="#D6D6D6"/>
<path d="M294.026 71.3766C293.478 71.6847 294.51 71.9157 294.578 71.8772C295.126 71.5692 294.094 71.3379 294.026 71.3766Z" fill="#646464"/>
<path d="M332.956 81.9268C333.974 82.9226 334.245 83.0651 335.576 83.6984C334.559 82.7025 334.287 82.56 332.956 81.9268Z" fill="#696969"/>
<path d="M299.291 79.7729C300.308 80.7688 300.58 80.9113 301.91 81.5446C300.893 80.5487 300.622 80.4062 299.291 79.7729Z" fill="#3C3C3C"/>
<path d="M302.732 81.0824C302.184 81.3906 303.216 81.6215 303.284 81.583C303.832 81.2751 302.8 81.0437 302.732 81.0824Z" fill="#808080"/>
<path d="M314.699 84.0854C315.716 85.0813 315.988 85.2238 317.318 85.8571C316.301 84.8612 316.029 84.7187 314.699 84.0854Z" fill="#CECECE"/>
<path d="M317.588 84.8943C318.605 85.8901 318.877 86.0326 320.207 86.6659C319.19 85.6701 318.918 85.5276 317.588 84.8943Z" fill="#AFAFAF"/>
<path d="M320.477 85.7029C321.494 86.6987 321.766 86.8412 323.096 87.4745C322.079 86.4787 321.807 86.3362 320.477 85.7029Z" fill="#7E7E7E"/>
<path d="M323.918 87.0123C323.37 87.3205 324.402 87.5514 324.47 87.5129C325.018 87.205 323.986 86.9736 323.918 87.0123Z" fill="#383838"/>
<path d="M293.796 79.6195C293.248 79.9276 294.279 80.1587 294.347 80.1201C294.896 79.8121 293.864 79.5808 293.796 79.6195Z" fill="#767676"/>
<path d="M295.722 80.1586C295.174 80.4667 296.205 80.6978 296.273 80.6592C296.822 80.3511 295.79 80.1199 295.722 80.1586Z" fill="#C0C0C0"/>
<path d="M219.186 228.693C233.6 229.301 250.337 217.425 261.507 209.386C265.438 206.557 271.911 202.986 273.775 198.281C275.496 193.933 273.368 187.903 272.787 183.467C271.657 174.825 271.257 165.894 271.637 157.184C272.454 138.433 277.035 119.393 286.916 103.308C291.77 95.4093 297.853 89.0488 303.836 82.0836C296.023 79.9662 287.751 79.4754 279.678 79.3552C270.986 79.2255 258.715 79.19 250.903 83.3937C236.864 90.9483 228.313 110.753 224.261 125.232C214.565 159.873 215.033 193.18 219.186 228.693ZM287.97 120.218C301.639 124.685 314.989 131.568 327.458 138.672C356.136 155.01 386.65 176.661 399.297 208.493C401.42 204.652 400.758 199.642 400.554 195.345C400.084 185.44 398.805 175.54 395.927 166.012C387.067 136.682 367.44 110.733 340.549 95.6096C334.397 92.1496 327.979 88.8623 321.17 86.9362C318.857 86.2817 316.111 85.1633 313.699 85.9114C310.174 87.0039 306.937 91.059 304.539 93.7032C297.585 101.372 292.005 110.711 287.97 120.218Z" fill="url(#paint0_angular_1_6)"/>
<path d="M327.911 88.822C328.928 89.8179 329.2 89.9604 330.531 90.5936C329.513 89.5978 329.242 89.4553 327.911 88.822Z" fill="#979797"/>
<path d="M232.719 88.8307C232.65 88.8692 232.312 89.8707 232.86 89.5625C232.929 89.5239 233.267 88.5225 232.719 88.8307Z" fill="#434343"/>
<path d="M230.665 89.9864C230.117 90.2947 231.148 90.5256 231.217 90.4871C231.765 90.179 230.733 89.9479 230.665 89.9864Z" fill="#D8D8D8"/>
<path d="M211.097 231.621C206.953 197.572 203.457 160.893 213.301 127.356C217.202 114.069 224.244 102.722 230.806 90.7185C221.104 92.3183 211.632 100.049 204.103 106.09C179.623 125.728 163.568 156.098 160.25 187.274C159.249 196.683 159.226 205.984 160.454 215.369C160.942 219.102 160.993 223.686 163.833 226.513C166.849 229.517 172.893 230.502 176.939 231.229C188.395 233.291 199.598 233.531 211.097 231.621Z" fill="url(#paint1_linear_1_6)"/>
<path d="M282.294 112.053C282.226 112.091 281.888 113.093 282.436 112.785C282.504 112.746 282.842 111.745 282.294 112.053Z" fill="#4A4A4A"/>
<path d="M289.459 116.135C289.391 116.174 289.053 117.175 289.601 116.867C289.669 116.829 290.007 115.827 289.459 116.135Z" fill="#AAAAAA"/>
<path d="M280.253 115.635C280.185 115.674 279.847 116.675 280.395 116.367C280.463 116.329 280.801 115.327 280.253 115.635Z" fill="#BEBEBE"/>
<path d="M279.714 117.561C279.646 117.6 279.307 118.601 279.856 118.293C279.924 118.255 280.262 117.253 279.714 117.561Z" fill="#898989"/>
<path d="M287.97 120.218C288.987 121.214 289.26 121.357 290.59 121.99C289.572 120.994 289.301 120.852 287.97 120.218Z" fill="#505050"/>
<path d="M290.859 121.027C291.876 122.023 292.148 122.165 293.479 122.798C292.461 121.803 292.19 121.66 290.859 121.027Z" fill="#9D9D9D"/>
<path d="M279.175 119.487C279.107 119.526 278.768 120.527 279.317 120.219C279.385 120.181 279.723 119.179 279.175 119.487Z" fill="#5D5D5D"/>
<path d="M296.368 123.607C297.385 124.603 297.657 124.746 298.987 125.379C297.97 124.383 297.698 124.241 296.368 123.607Z" fill="#545454"/>
<path d="M299.809 124.917C299.261 125.225 300.293 125.456 300.36 125.417C300.909 125.109 299.877 124.878 299.809 124.917Z" fill="#B9B9B9"/>
<path d="M302.839 126.457C303.856 127.453 304.128 127.595 305.458 128.229C304.441 127.233 304.17 127.09 302.839 126.457Z" fill="#4F4F4F"/>
<path d="M306.28 127.766C305.732 128.074 306.764 128.305 306.832 128.267C307.38 127.959 306.348 127.728 306.28 127.766Z" fill="#C5C5C5"/>
<path d="M278.636 121.413C278.568 121.452 278.229 122.453 278.778 122.145C278.846 122.106 279.184 121.105 278.636 121.413Z" fill="#3B3B3B"/>
<path d="M221.011 108.399C220.943 108.438 220.604 109.439 221.152 109.131C221.221 109.093 221.559 108.091 221.011 108.399Z" fill="#404040"/>
<path d="M228.445 111.519C228.377 111.557 228.039 112.559 228.587 112.25C228.655 112.212 228.993 111.211 228.445 111.519Z" fill="#7F7F7F"/>
<path d="M284.851 127.653C285.868 128.649 286.14 128.791 287.47 129.424C286.453 128.429 286.181 128.286 284.851 127.653Z" fill="#656565"/>
<path d="M288.292 128.962C287.744 129.27 288.776 129.501 288.844 129.463C289.392 129.155 288.36 128.923 288.292 128.962Z" fill="#191919"/>
<path d="M227.906 113.444C227.838 113.483 227.5 114.485 228.048 114.176C228.116 114.138 228.454 113.136 227.906 113.444Z" fill="#CBCBCB"/>
<path d="M284.581 128.616L282.425 136.32C284.29 133.965 284.953 131.596 284.581 128.616Z" fill="#C4C4C4"/>
<path d="M285.544 128.885C280.938 145.342 279.164 161.354 280.822 178.447C281.291 183.291 281.025 191.047 284.043 195.072C286.607 198.493 291.862 199.067 295.567 200.668C303.986 204.311 312.338 208.358 320.058 213.339C345.159 229.538 361.011 250.936 370.145 279.254C377.064 274.332 381.888 265.049 385.886 257.699C390.434 249.338 396.248 238.154 396.181 228.389C396.081 214.023 385.853 198.582 376.977 188.065C354.252 161.139 318.945 139.799 285.544 128.885Z" fill="url(#paint2_radial_1_6)"/>
<path d="M290.359 130.233C291.376 131.229 291.649 131.372 292.979 132.005C291.961 131.009 291.69 130.866 290.359 130.233Z" fill="#C1C1C1"/>
<path d="M293.248 131.042C294.266 132.037 294.538 132.18 295.868 132.813C294.85 131.817 294.579 131.675 293.248 131.042Z" fill="#636363"/>
<path d="M218.97 111.982C218.901 112.02 218.563 113.022 219.111 112.713C219.18 112.675 219.518 111.673 218.97 111.982ZM297.794 133.352C298.811 134.348 299.082 134.491 300.413 135.124C299.396 134.128 299.124 133.985 297.794 133.352Z" fill="#B3B3B3"/>
<path d="M301.235 134.662C300.687 134.97 301.719 135.201 301.787 135.162C302.335 134.854 301.303 134.623 301.235 134.662Z" fill="#414141"/>
<path d="M305.781 136.972C305.232 137.28 306.264 137.511 306.332 137.473C306.88 137.165 305.848 136.934 305.781 136.972Z" fill="#6F6F6F"/>
<path d="M218.431 113.908C218.362 113.946 218.024 114.948 218.572 114.639C218.641 114.601 218.978 113.599 218.431 113.908Z" fill="#7B7B7B"/>
<path d="M225.865 117.027C225.797 117.065 225.459 118.067 226.007 117.759C226.075 117.72 226.413 116.719 225.865 117.027Z" fill="#464646"/>
<path d="M217.75 115.102L216.942 117.991C218.031 116.682 218.002 116.786 217.75 115.102Z" fill="#4C4C4C"/>
<path d="M225.326 118.953C225.258 118.991 224.92 119.993 225.467 119.685C225.536 119.646 225.874 118.645 225.326 118.953Z" fill="#737373"/>
<path d="M224.787 120.879C224.719 120.918 224.38 121.919 224.928 121.611C224.997 121.572 225.335 120.571 224.787 120.879Z" fill="#989898"/>
<path d="M274.721 134.163L273.912 137.052C275.001 135.744 274.973 135.847 274.721 134.163Z" fill="#464646"/>
<path d="M282.425 136.32L281.616 139.209C282.705 137.9 282.677 138.004 282.425 136.32Z" fill="#888888"/>
<path d="M224.107 122.073L220.333 135.555C223.009 132.179 224.641 126.348 224.107 122.073Z" fill="#DADADA"/>
<path d="M273.912 137.052L273.104 139.941C274.193 138.633 274.164 138.736 273.912 137.052Z" fill="#808080"/>
<path d="M281.616 139.208L280.808 142.097C281.897 140.789 281.868 140.892 281.616 139.208Z" fill="#4A4A4A"/>
<path d="M214.901 121.573L211.397 134.092C213.95 130.87 215.411 125.653 214.901 121.573Z" fill="#D0D0D0"/>
<path d="M273.245 140.673C273.177 140.712 272.838 141.713 273.387 141.405C273.455 141.366 273.793 140.365 273.245 140.673Z" fill="#CACACA"/>
<path d="M281.232 144.293L280.423 147.182C281.512 145.873 281.483 145.977 281.232 144.293Z" fill="#B8B8B8"/>
<path d="M272.989 144.063L272.18 146.952C273.269 145.643 273.24 145.747 272.989 144.063Z" fill="#505050"/>
<path d="M280.564 147.914C280.496 147.952 280.158 148.954 280.706 148.646C280.774 148.608 281.112 147.606 280.564 147.914Z" fill="#474747"/>
<path d="M272.321 147.684C272.253 147.722 271.915 148.724 272.463 148.415C272.531 148.377 272.869 147.375 272.321 147.684Z" fill="#C6C6C6"/>
<path d="M220.333 135.555L219.524 138.444C220.614 137.135 220.584 137.239 220.333 135.555Z" fill="#A9A9A9"/>
<path d="M211.82 136.288L211.012 139.177C212.101 137.868 212.072 137.972 211.82 136.288Z" fill="#2A2A2A"/>
<path d="M219.524 138.444L218.716 141.333C219.805 140.024 219.776 140.128 219.524 138.444Z" fill="#7A7A7A"/>
<path d="M211.012 139.177L210.203 142.065C211.292 140.757 211.263 140.861 211.012 139.177Z" fill="#636363"/>
<path d="M218.716 141.333L217.907 144.222C218.996 142.913 218.967 143.017 218.716 141.333Z" fill="#3D3D3D"/>
<path d="M210.203 142.065L209.395 144.954C210.484 143.646 210.455 143.75 210.203 142.065Z" fill="#A8A8A8"/>
<path d="M218.331 146.417L217.522 149.306C218.612 147.998 218.583 148.102 218.331 146.417Z" fill="#B8B8B8"/>
<path d="M217.522 149.306L216.714 152.195C217.803 150.886 217.774 150.99 217.522 149.306Z" fill="#575757"/>
<path d="M209.549 148.113L208.74 151.002C209.83 149.693 209.8 149.797 209.549 148.113Z" fill="#5C5C5C"/>
<path d="M208.881 151.734C208.813 151.772 208.475 152.774 209.023 152.465C209.091 152.427 209.429 151.425 208.881 151.734Z" fill="#C7C7C7"/>
<path d="M217.138 154.391L216.329 157.28C217.418 155.971 217.389 156.075 217.138 154.391Z" fill="#9B9B9B"/>
<path d="M208.766 155.856C208.698 155.894 208.36 156.895 208.908 156.587C208.976 156.549 209.314 155.547 208.766 155.856Z" fill="#696969"/>
<path d="M399.849 208.993C399.301 209.302 400.333 209.533 400.401 209.494C400.949 209.186 399.917 208.955 399.849 208.993Z" fill="#717171"/>
<path d="M162.967 145.113C162.899 145.151 162.56 146.153 163.108 145.844C163.177 145.806 163.515 144.804 162.967 145.113Z" fill="#626262"/>
<path d="M408.529 213.846C408.461 213.885 408.122 214.886 408.671 214.578C408.738 214.54 409.077 213.538 408.529 213.846Z" fill="#888888"/>
<path d="M170.132 149.195C170.063 149.233 169.725 150.235 170.273 149.927C170.341 149.889 170.68 148.887 170.132 149.195Z" fill="#777777"/>
<path d="M407.989 215.772C407.922 215.81 407.583 216.812 408.132 216.504C408.199 216.465 408.538 215.464 407.989 215.772Z" fill="#3B3B3B"/>
<path d="M169.593 151.121C169.524 151.159 169.186 152.161 169.734 151.853C169.802 151.815 170.14 150.813 169.593 151.121Z" fill="#C1C1C1"/>
<path d="M160.656 149.659C160.588 149.697 160.25 150.698 160.798 150.39C160.866 150.352 161.204 149.35 160.656 149.659Z" fill="#AFAFAF"/>
<path d="M407.874 219.894C407.806 219.932 407.468 220.934 408.016 220.625C408.084 220.587 408.423 219.585 407.874 219.894Z" fill="#B7B7B7"/>
<path d="M160.117 151.584C160.049 151.622 159.711 152.624 160.258 152.316C160.327 152.278 160.665 151.276 160.117 151.584Z" fill="#767676"/>
<path d="M167.41 153.972L166.602 156.861C167.691 155.552 167.662 155.656 167.41 153.972Z" fill="#3E3E3E"/>
<path d="M407.335 221.82C407.267 221.858 406.929 222.86 407.477 222.551C407.545 222.513 407.884 221.511 407.335 221.82Z" fill="#838383"/>
<path d="M159.578 153.511C159.51 153.549 159.171 154.551 159.719 154.242C159.788 154.204 160.126 153.202 159.578 153.511Z" fill="#464646"/>
<path d="M406.796 223.746C406.728 223.784 406.39 224.786 406.938 224.477C407.006 224.439 407.345 223.437 406.796 223.746Z" fill="#575757"/>
<path d="M159.039 155.436C158.971 155.474 158.632 156.476 159.18 156.168C159.249 156.13 159.587 155.128 159.039 155.436Z" fill="#1E1E1E"/>
<path d="M166.743 157.593C166.674 157.631 166.336 158.633 166.884 158.324C166.952 158.286 167.291 157.284 166.743 157.593Z" fill="#828282"/>
<path d="M406.257 225.672C406.189 225.71 405.851 226.712 406.399 226.403C406.467 226.365 406.806 225.363 406.257 225.672Z" fill="#323232"/>
<path d="M166.204 159.519C166.135 159.557 165.797 160.559 166.345 160.25C166.413 160.212 166.752 159.21 166.204 159.519Z" fill="#A5A5A5"/>
<path d="M156.856 158.287L153.352 170.805C155.906 167.584 157.367 162.366 156.856 158.287Z" fill="#C7C7C7"/>
<path d="M165.523 160.712L162.019 173.231C164.573 170.009 166.034 164.792 165.523 160.712Z" fill="#DEDEDE"/>
<path d="M283.432 195.792C284.449 196.788 284.721 196.931 286.051 197.564C285.034 196.568 284.762 196.425 283.432 195.792Z" fill="#D1D1D1"/>
<path d="M289.493 198.873C288.944 199.181 289.976 199.412 290.044 199.374C290.593 199.065 289.561 198.835 289.493 198.873Z" fill="#292929"/>
<path d="M290.866 198.912C291.883 199.908 292.155 200.05 293.486 200.683C292.468 199.687 292.197 199.545 290.866 198.912Z" fill="#545454"/>
<path d="M293.755 199.72C294.772 200.716 295.044 200.859 296.375 201.492C295.357 200.496 295.086 200.353 293.755 199.72Z" fill="#A2A2A2"/>
<path d="M405.462 230.987L403.575 237.728C405.278 235.573 405.799 233.713 405.462 230.987Z" fill="#EDEDED"/>
<path d="M299.264 202.3C300.281 203.296 300.552 203.439 301.883 204.072C300.866 203.076 300.594 202.933 299.264 202.3Z" fill="#6C6C6C"/>
<path d="M396.256 230.487L394.639 236.265C396.17 234.321 396.556 232.944 396.256 230.487Z" fill="#B2B2B2"/>
<path d="M281.006 204.459C282.023 205.455 282.295 205.598 283.625 206.231C282.608 205.235 282.337 205.092 281.006 204.459Z" fill="#D9D9D9"/>
<path d="M283.895 205.268C284.912 206.264 285.184 206.406 286.514 207.039C285.497 206.043 285.226 205.901 283.895 205.268Z" fill="#B8B8B8"/>
<path d="M287.337 206.577C286.788 206.886 287.82 207.116 287.888 207.078C288.436 206.77 287.404 206.539 287.337 206.577Z" fill="#878787"/>
<path d="M288.71 206.615C289.727 207.612 289.999 207.754 291.329 208.387C290.312 207.391 290.041 207.249 288.71 206.615Z" fill="#5C5C5C"/>
<path d="M394.639 236.265L393.83 239.154C394.919 237.845 394.89 237.949 394.639 236.265Z" fill="#989898"/>
<path d="M165.8 237.634C169.129 250.953 176.307 263.198 184.719 273.922C187.675 277.691 190.912 282.472 195.153 284.876C207.604 291.93 226.249 291.221 239.772 288.707C265.348 283.952 289.01 272.554 310.704 258.463C320.139 252.335 330.099 246.101 338.055 238.081C325.034 227.819 313.215 217.948 297.801 211.237C293.097 209.189 286.198 205.323 280.888 206.091C276.482 206.728 272.112 211.953 268.632 214.495C261.252 219.887 253.215 224.356 245.158 228.653C220.771 241.657 192.388 245.076 165.8 237.634Z" fill="url(#paint3_linear_1_6)"/>
<path d="M294.218 209.196C295.235 210.192 295.507 210.334 296.838 210.967C295.821 209.971 295.549 209.829 294.218 209.196Z" fill="#AEAEAE"/>
<path d="M297.66 210.505C297.111 210.813 298.143 211.044 298.211 211.006C298.76 210.697 297.728 210.467 297.66 210.505Z" fill="#424242"/>
<path d="M162.019 173.231L161.211 176.12C162.3 174.812 162.271 174.916 162.019 173.231Z" fill="#A3A3A3"/>
<path d="M401.803 240.347L400.995 243.236C402.084 241.927 402.055 242.031 401.803 240.347Z" fill="#242424"/>
<path d="M393.83 239.154L393.021 242.043C394.111 240.734 394.081 240.838 393.83 239.154Z" fill="#6C6C6C"/>
<path d="M153.507 173.964L152.698 176.853C153.787 175.544 153.758 175.648 153.507 173.964Z" fill="#343434"/>
<path d="M161.211 176.12L160.402 179.009C161.491 177.7 161.462 177.804 161.211 176.12Z" fill="#6B6B6B"/>
<path d="M400.995 243.236L400.186 246.125C401.275 244.816 401.246 244.92 400.995 243.236Z" fill="#595959"/>
<path d="M393.162 242.775C393.095 242.813 392.756 243.815 393.304 243.507C393.372 243.468 393.711 242.467 393.162 242.775Z" fill="#2E2E2E"/>
<path d="M152.698 176.853L151.889 179.742C152.979 178.433 152.95 178.537 152.698 176.853Z" fill="#7A7A7A"/>
<path d="M160.543 179.742C160.475 179.78 160.137 180.781 160.685 180.473C160.753 180.435 161.091 179.433 160.543 179.742Z" fill="#1F1F1F"/>
<path d="M400.186 246.125L399.378 249.014C400.467 247.706 400.438 247.81 400.186 246.125Z" fill="#9F9F9F"/>
<path d="M390.98 245.625L390.172 248.514C391.261 247.206 391.232 247.31 390.98 245.625Z" fill="#BABABA"/>
<path d="M152.031 180.474C151.962 180.512 151.624 181.514 152.172 181.205C152.24 181.167 152.579 180.165 152.031 180.474Z" fill="#D2D2D2"/>
<path d="M160.287 183.131L159.478 186.02C160.567 184.711 160.538 184.815 160.287 183.131Z" fill="#999999"/>
<path d="M390.312 249.246C390.245 249.284 389.906 250.286 390.455 249.978C390.522 249.94 390.861 248.938 390.312 249.246Z" fill="#4E4E4E"/>
<path d="M397.606 251.634L396.797 254.523C397.886 253.214 397.857 253.318 397.606 251.634Z" fill="#646464"/>
<path d="M151.774 183.863L150.966 186.752C152.055 185.443 152.026 185.547 151.774 183.863Z" fill="#686868"/>
<path d="M343.448 244.783C318.839 267.294 285.885 285.353 253.798 294.245C240.35 297.972 225.072 300.796 211.18 298.104C218.764 306.472 232.376 311.302 242.998 314.279C269.61 321.739 295.86 322.814 322.231 313.166C333.292 309.12 343.645 303.38 353.026 296.27C356.032 293.992 360.665 291.11 361.855 287.318C362.994 283.688 361.163 278.879 360.115 275.408C356.802 264.446 351.197 253.287 343.448 244.783Z" fill="url(#paint4_linear_1_6)"/>
<path d="M219.739 229.193C219.19 229.502 220.222 229.733 220.29 229.694C220.838 229.386 219.806 229.155 219.739 229.193Z" fill="#9E9E9E"/>
<path d="M163.27 226.887C162.722 227.196 163.753 227.427 163.822 227.389C164.37 227.08 163.338 226.849 163.27 226.887Z" fill="#E1E1E1"/>
<path d="M179.088 230.969C180.106 231.965 180.377 232.108 181.708 232.741C180.69 231.745 180.418 231.602 179.088 230.969Z" fill="#BEBEBE"/>
<path d="M181.977 231.778C182.995 232.774 183.266 232.916 184.597 233.549C183.579 232.553 183.308 232.411 181.977 231.778Z" fill="#616161"/>
<path d="M166.3 228.428C168.52 230.19 171.006 230.777 173.734 231.548C171.514 229.786 169.029 229.199 166.3 228.428Z" fill="#3B3B3B"/>
<path d="M174.004 230.584C175.021 231.581 175.293 231.723 176.623 232.356C175.606 231.36 175.334 231.217 174.004 230.584Z" fill="#232323"/>
<path d="M363.045 287.305C362.977 287.344 362.638 288.345 363.187 288.037C363.255 287.999 363.593 286.997 363.045 287.305Z" fill="#3C3C3C"/>
<path d="M180.784 239.751C181.801 240.747 182.073 240.89 183.403 241.523C182.386 240.527 182.114 240.384 180.784 239.751Z" fill="#5A5A5A"/>
<path d="M165.107 236.401C167.086 237.978 169.134 238.547 171.578 239.251C169.598 237.674 167.551 237.105 165.107 236.401Z" fill="#6C6C6C"/>
<path d="M171.848 238.288C172.865 239.284 173.137 239.427 174.467 240.06C173.449 239.064 173.178 238.921 171.848 238.288Z" fill="#848484"/>
<path d="M174.736 239.097C175.754 240.093 176.026 240.236 177.356 240.869C176.338 239.872 176.067 239.73 174.736 239.097Z" fill="#B2B2B2"/>
<path d="M211.68 288.898C212.697 289.894 212.969 290.036 214.3 290.67C213.283 289.674 213.011 289.531 211.68 288.898Z" fill="#ABABAB"/>
<path d="M195.592 285.779C195.044 286.088 196.076 286.318 196.144 286.28C196.692 285.972 195.66 285.741 195.592 285.779Z" fill="#666666"/>
<path d="M196.966 285.818C199.654 287.949 203.039 288.556 206.326 289.476C203.638 287.346 200.254 286.738 196.966 285.818Z" fill="#999999"/>
<path d="M206.596 288.513C207.613 289.509 207.885 289.652 209.215 290.285C208.198 289.289 207.926 289.147 206.596 288.513Z" fill="#4E4E4E"/>
<path d="M229.375 309.773C228.827 310.082 229.859 310.313 229.927 310.274C230.475 309.966 229.443 309.735 229.375 309.773Z" fill="#545454"/>
<path d="M231.301 310.312C230.753 310.621 231.785 310.852 231.853 310.813C232.401 310.505 231.369 310.274 231.301 310.312Z" fill="#9E9E9E"/>
<path d="M233.227 310.851C232.679 311.16 233.711 311.391 233.779 311.353C234.327 311.044 233.295 310.813 233.227 310.851Z" fill="#DFDFDF"/>
<path d="M261.564 318.438C262.582 319.434 262.853 319.576 264.184 320.209C263.167 319.213 262.895 319.071 261.564 318.438Z" fill="#BBBBBB"/>
<path d="M265.006 319.746C264.457 320.055 265.489 320.286 265.557 320.248C266.106 319.939 265.074 319.708 265.006 319.746Z" fill="#505050"/>
<path d="M235.847 312.623C235.298 312.932 236.33 313.162 236.398 313.124C236.947 312.816 235.915 312.585 235.847 312.623Z" fill="#333333"/>
<path d="M237.22 312.662C238.237 313.658 238.509 313.8 239.84 314.433C238.822 313.437 238.551 313.295 237.22 312.662Z" fill="#5F5F5F"/>
<path d="M240.109 313.47C241.603 314.697 242.787 315.167 244.655 315.781C243.161 314.554 241.977 314.084 240.109 313.47Z" fill="#A7A7A7"/>
<path d="M244.924 314.818C247.38 316.765 250.312 317.363 253.321 318.207C250.865 316.26 247.934 315.663 244.924 314.818Z" fill="#B8B8B8"/>
<path d="M253.591 317.244C254.608 318.24 254.88 318.383 256.21 319.016C255.193 318.02 254.922 317.877 253.591 317.244Z" fill="#818181"/>
<path d="M256.48 318.053C257.497 319.049 257.769 319.191 259.099 319.824C258.082 318.828 257.811 318.686 256.48 318.053Z" fill="#474747"/>
<path d="M225.293 316.938C224.745 317.247 225.777 317.478 225.844 317.439C226.393 317.131 225.361 316.9 225.293 316.938Z" fill="#858585"/>
<path d="M227.219 317.477C226.671 317.786 227.703 318.017 227.77 317.979C228.319 317.67 227.287 317.439 227.219 317.477Z" fill="#383838"/>
<path d="M263.26 327.219C264.277 328.215 264.549 328.358 265.88 328.991C264.862 327.995 264.591 327.852 263.26 327.219Z" fill="#646464"/>
<path d="M266.702 328.529C266.153 328.837 267.185 329.068 267.253 329.03C267.801 328.721 266.769 328.491 266.702 328.529Z" fill="#DFDFDF"/>
<path d="M230.249 319.018C231.266 320.014 231.538 320.157 232.868 320.79C231.851 319.794 231.58 319.651 230.249 319.018Z" fill="#B4B4B4"/>
<path d="M233.69 320.327C233.142 320.636 234.174 320.866 234.242 320.828C234.79 320.52 233.758 320.289 233.69 320.327Z" fill="#696969"/>
<path d="M235.616 320.866C235.068 321.175 236.1 321.405 236.168 321.367C236.716 321.059 235.684 320.828 235.616 320.866Z" fill="#424242"/>
<path d="M236.99 320.905C238.007 321.901 238.279 322.043 239.609 322.676C238.592 321.68 238.32 321.538 236.99 320.905Z" fill="#202020"/>
<path d="M251.435 324.948C252.452 325.944 252.724 326.086 254.054 326.719C253.037 325.723 252.765 325.581 251.435 324.948Z" fill="#232323"/>
<path d="M254.324 325.756C255.341 326.752 255.612 326.895 256.943 327.528C255.926 326.532 255.654 326.389 254.324 325.756Z" fill="#575757"/>
<path d="M257.213 326.565C258.23 327.561 258.501 327.703 259.832 328.337C258.815 327.341 258.543 327.198 257.213 326.565Z" fill="#9D9D9D"/>
<path d="M241.535 323.215C243.515 324.792 245.563 325.361 248.007 326.065C246.026 324.488 243.979 323.919 241.535 323.215Z" fill="#E8E8E8"/>
<path d="M354.032 214.307C358.8 212.534 361.178 211.093 364.954 207.812L363.855 214.44C355.713 220.748 350.835 224.23 342.415 227.673C344.935 221.93 346.08 219.571 342.017 221.933C338.577 220.005 337.082 218.484 335.56 214.608C338.245 211.48 336.655 211.82 329.374 214.601C333.471 206.232 336.937 201.712 343.587 193.719L352.684 192.316C356 189.572 358.249 188.272 362.877 186.345C366.704 185.008 368.928 184.711 373.065 185.185C373.856 191.347 372.918 194.712 369.166 200.582C364.039 206.863 360.745 209.891 354.032 214.307Z" fill="white"/>
<path d="M330.017 218.059L333.496 216.164C335.391 220.309 337.164 221.937 341.126 224.055L338.818 227.206L317.301 239.256L330.017 218.059Z" fill="white"/>
<path d="M353.762 193.89C359.462 189.827 363.401 187.95 369.751 187.052C355.91 193.797 349.121 201.219 338.513 214.057C343.539 205.519 346.677 200.701 353.762 193.89Z" fill="black"/>
<path d="M106.478 280.912C106.519 275.368 107.699 269.786 109.666 262.57C117.702 242.396 124.451 230.757 138.599 211.023C133.204 233.809 131.172 251.743 133.571 264.79C134.815 271.559 137.257 277.039 141.064 281.196C144.873 285.355 150.017 288.155 156.601 289.617C169.74 292.534 188.683 290.14 214.486 282.545C239.516 275.177 271.072 262.894 310.165 245.72C272.831 274.579 249.445 290.077 200.553 309.592C179.792 317.035 167.502 319.532 143.344 318.223C135 317.195 128.998 315.713 123.941 312.844C118.898 309.984 114.748 305.719 110.158 299.04C107.532 291.959 106.439 286.439 106.478 280.912Z" fill="white" stroke="#656565"/>
<path d="M143.611 186.055C53.1084 318.662 77.1114 363.055 207.611 319.555L81.7993 357.555C33.2994 369.055 30.7841 348.897 62.2994 301.555L143.611 186.055Z" fill="url(#paint5_linear_1_6)"/>
<path d="M451.426 254V177.7H479.984C486.451 177.7 492.01 178.754 496.661 180.861C501.312 182.896 504.872 185.875 507.343 189.799C509.886 193.65 511.158 198.337 511.158 203.86C511.158 209.237 509.886 213.888 507.343 217.812C504.872 221.663 501.312 224.643 496.661 226.75C492.01 228.785 486.451 229.802 479.984 229.802H455.895L459.492 226.096V254H451.426ZM503.528 254L483.908 226.314H492.628L512.357 254H503.528ZM459.492 226.75L455.895 222.935H479.766C487.396 222.935 493.173 221.264 497.097 217.921C501.094 214.578 503.092 209.891 503.092 203.86C503.092 197.756 501.094 193.033 497.097 189.69C493.173 186.347 487.396 184.676 479.766 184.676H455.895L459.492 180.861V226.75ZM563.55 254.654C557.809 254.654 552.468 253.709 547.527 251.82C542.658 249.858 538.407 247.133 534.774 243.645C531.213 240.084 528.415 235.979 526.381 231.328C524.419 226.605 523.438 221.445 523.438 215.85C523.438 210.255 524.419 205.132 526.381 200.481C528.415 195.758 531.213 191.652 534.774 188.164C538.407 184.603 542.658 181.878 547.527 179.989C552.395 178.027 557.736 177.046 563.55 177.046C569.29 177.046 574.595 178.027 579.464 179.989C584.332 181.878 588.547 184.567 592.108 188.055C595.741 191.543 598.539 195.649 600.501 200.372C602.535 205.095 603.553 210.255 603.553 215.85C603.553 221.445 602.535 226.605 600.501 231.328C598.539 236.051 595.741 240.157 592.108 243.645C588.547 247.133 584.332 249.858 579.464 251.82C574.595 253.709 569.29 254.654 563.55 254.654ZM563.55 247.46C568.128 247.46 572.342 246.697 576.194 245.171C580.118 243.572 583.497 241.356 586.331 238.522C589.237 235.615 591.49 232.273 593.089 228.494C594.687 224.643 595.487 220.428 595.487 215.85C595.487 211.272 594.687 207.094 593.089 203.315C591.49 199.464 589.237 196.121 586.331 193.287C583.497 190.38 580.118 188.164 576.194 186.638C572.342 185.039 568.128 184.24 563.55 184.24C558.972 184.24 554.721 185.039 550.797 186.638C546.873 188.164 543.457 190.38 540.551 193.287C537.717 196.121 535.464 199.464 533.793 203.315C532.194 207.094 531.395 211.272 531.395 215.85C531.395 220.355 532.194 224.534 533.793 228.385C535.464 232.236 537.717 235.615 540.551 238.522C543.457 241.356 546.873 243.572 550.797 245.171C554.721 246.697 558.972 247.46 563.55 247.46ZM654.768 254.654C649.027 254.654 643.723 253.709 638.854 251.82C633.985 249.858 629.771 247.133 626.21 243.645C622.649 240.157 619.852 236.051 617.817 231.328C615.855 226.605 614.874 221.445 614.874 215.85C614.874 210.255 615.855 205.095 617.817 200.372C619.852 195.649 622.649 191.543 626.21 188.055C629.843 184.567 634.094 181.878 638.963 179.989C643.832 178.027 649.136 177.046 654.877 177.046C660.4 177.046 665.595 177.991 670.464 179.88C675.333 181.697 679.438 184.458 682.781 188.164L677.658 193.287C674.533 190.09 671.082 187.801 667.303 186.42C663.524 184.967 659.455 184.24 655.095 184.24C650.517 184.24 646.266 185.039 642.342 186.638C638.418 188.164 635.003 190.38 632.096 193.287C629.189 196.121 626.9 199.464 625.229 203.315C623.63 207.094 622.831 211.272 622.831 215.85C622.831 220.428 623.63 224.643 625.229 228.494C626.9 232.273 629.189 235.615 632.096 238.522C635.003 241.356 638.418 243.572 642.342 245.171C646.266 246.697 650.517 247.46 655.095 247.46C659.455 247.46 663.524 246.733 667.303 245.28C671.082 243.827 674.533 241.501 677.658 238.304L682.781 243.427C679.438 247.133 675.333 249.931 670.464 251.82C665.595 253.709 660.363 254.654 654.768 254.654ZM706.952 235.034L706.625 225.224L752.841 177.7H762.106L728.425 213.016L723.847 217.921L706.952 235.034ZM699.976 254V177.7H708.042V254H699.976ZM754.803 254L721.885 216.068L727.335 210.182L764.395 254H754.803ZM784.662 211.817H824.992V218.684H784.662V211.817ZM785.534 247.024H831.423V254H777.468V177.7H829.788V184.676H785.534V247.024ZM865.207 254V184.676H838.393V177.7H900.087V184.676H873.273V254H865.207Z" fill="black"/>
<defs>
<radialGradient id="paint0_angular_1_6" cx="0" cy="0" r="1" gradientUnits="userSpaceOnUse" gradientTransform="translate(311.243 169.287) rotate(105.637) scale(82.0202 95.6377)">
<stop stop-color="#CD50B9"/>
<stop offset="1" stop-color="#49B0D3"/>
</radialGradient>
<linearGradient id="paint1_linear_1_6" x1="218.979" y1="87.4082" x2="178.479" y2="232.103" gradientUnits="userSpaceOnUse">
<stop stop-color="#A42FAD"/>
<stop offset="1" stop-color="#56BEDD"/>
</linearGradient>
<radialGradient id="paint2_radial_1_6" cx="0" cy="0" r="1" gradientUnits="userSpaceOnUse" gradientTransform="translate(333.872 205.757) rotate(105.637) scale(61 67.2594)">
<stop stop-color="#4CB3D5"/>
<stop offset="1" stop-color="#6E57CB"/>
</radialGradient>
<linearGradient id="paint3_linear_1_6" x1="262.552" y1="199.9" x2="235.319" y2="297.195" gradientUnits="userSpaceOnUse">
<stop stop-color="#50B7DA"/>
<stop offset="1" stop-color="#7159CE"/>
</linearGradient>
<linearGradient id="paint4_linear_1_6" x1="303.096" y1="233.488" x2="277.759" y2="324.009" gradientUnits="userSpaceOnUse">
<stop stop-color="#55B9DA"/>
<stop offset="1" stop-color="#745BD3"/>
</linearGradient>
<linearGradient id="paint5_linear_1_6" x1="168.401" y1="190.069" x2="112.693" y2="390.498" gradientUnits="userSpaceOnUse">
<stop stop-color="#3B3B3B"/>
<stop offset="1" stop-color="#C9C9C9"/>
</linearGradient>
</defs>
</svg>
